<?xml version="1.0" encoding="UTF-8" standalone="no"?>
<!-- Created with Inkscape (http://www.inkscape.org/) -->

<svg
   width="500mm"
   height="500mm"
   viewBox="0 0 499.99996 499.99999"
   xmlns="http://www.w3.org/2000/svg"
   xmlns:svg="http://www.w3.org/2000/svg">
  <g
     id="layer1">
    <path
       id="rect217"
       style="color:#000000;stroke-width:3.77952761;stroke-miterlimit:4;stroke-dasharray:none"
       d="M 1094.6504 151.18164 L 1094.6504 226.77148 L 1511.8105 226.77148 C 1596.2185 226.77148 1662.9922 293.54512 1662.9922 377.95312 L 1662.9922 1511.8105 C 1662.9922 1596.2185 1596.2185 1662.9922 1511.8105 1662.9922 L 377.95312 1662.9922 C 293.54512 1662.9922 226.77148 1596.2185 226.77148 1511.8105 L 226.77148 668.25391 L 151.18164 668.25391 L 151.18164 1511.8105 C 151.18164 1636.7881 252.97551 1738.582 377.95312 1738.582 L 1511.8105 1738.582 C 1636.7881 1738.582 1738.582 1636.7881 1738.582 1511.8105 L 1738.582 377.95312 C 1738.582 252.97551 1636.7881 151.18164 1511.8105 151.18164 L 1094.6504 151.18164 z "
       transform="scale(0.26458333)" />
    <path
       style="color:#000000;"
       d="m 191.93555,194.14453 -18.33399,7.99024 92.09961,211.30273 18.33399,-7.99023 z"
       id="path1761" />
    <path
       style="color:#000000;"
       d="m 146.76758,212.50977 c -18.32452,25.85297 -38.87926,52.99319 -36.43555,83.72851 2.44369,30.73506 26.75938,56.22736 43.36133,78.47266 16.60197,22.24532 27.99342,42.31117 39.6543,62.87109 l 17.39648,-9.86719 c -11.66088,-20.55992 -23.59208,-41.61277 -41.02148,-64.96679 -17.42943,-23.35405 -37.85241,-47.9384 -39.45508,-68.09571 -1.60265,-20.15704 14.49189,-44.7232 32.8164,-70.57617 z"
       id="path1803" />
    <path
       style="color:#000000;"
       d="m 238.01367,221.88477 -7.68164,18.46679 c 17.37274,7.22668 34.47117,14.37926 47.92774,21.96094 13.45656,7.58168 22.77713,15.70491 26.10156,22.81445 3.32451,7.10971 2.66654,16.66087 -0.11133,28.50586 -2.77787,11.84499 -7.48548,25.20468 -9.09375,39.30664 -3.21653,28.20382 7.37151,52.82387 16.89062,75.62305 l 18.45508,-7.70508 c -9.51911,-22.79918 -17.96927,-43.7781 -15.47461,-65.65234 1.24733,-10.93707 5.58133,-23.73596 8.69336,-37.00586 3.11204,-13.26991 5.19018,-27.78883 -1.24218,-41.54492 -6.43245,-13.75627 -19.36075,-23.29286 -34.40235,-31.76758 -15.0416,-8.47472 -32.68976,-15.77528 -50.0625,-23.00195 z"
       id="path1807" />
    <path
       style="color:#000000;"
       d="m 229.30859,173.48437 -0.26562,19.99805 c 22.96525,0.30535 45.76743,0.622 64.85937,2.25391 19.09195,1.63191 34.61507,5.09834 41.39453,9.15429 6.77962,4.05605 8.0827,8.14246 8.98633,17.25196 0.90363,9.1095 -0.0603,21.94806 1.68555,36.71484 3.49161,29.53349 17.18748,61.31845 21.86328,87.41211 4.67582,26.09373 1.38023,48.67467 -2.18945,72.69531 l 19.7832,2.93946 c 3.56968,-24.02065 7.41289,-49.47825 2.09375,-79.16211 -5.31915,-29.68393 -18.7532,-61.41287 -21.6875,-86.23242 -1.46714,-12.40974 -0.46771,-24.45661 -1.64648,-36.33985 -1.17878,-11.88324 -6.00357,-24.89582 -18.61914,-32.44336 -12.61573,-7.54763 -29.75634,-10.189 -49.96094,-11.91601 -20.2046,-1.72702 -43.33163,-2.02082 -66.29688,-2.32618 z"
       id="path1811" />
    <path
       style="color:#000000;"
       d="m 163.49023,256.60547 c -0.23798,14.65701 -0.36417,31.34558 7.93164,58.45898 8.2958,27.11334 24.53816,64.55186 40.72071,102.00782 l 18.35937,-7.93165 c -16.18254,-37.45595 -32.30573,-74.92721 -39.95508,-99.92773 -7.64932,-25.00045 -7.29853,-37.62619 -7.06054,-52.2832 z"
       id="path1815" />
    <g
       aria-label="2D"
       id="text2979"
       style="font-size:176.389px;font-family:Sans;letter-spacing:0px;word-spacing:0px;stroke-width:0.264583px">
      <path
         d="m 61.862546,131.53964 h 56.585734 v 24.37407 H 25 V 131.53964 L 71.939457,90.112343 q 6.287304,-5.684411 9.301765,-11.11044 3.01446,-5.426029 3.01446,-11.282695 0,-9.043382 -6.115049,-14.555538 -6.028921,-5.512157 -16.105832,-5.512157 -7.75147,0 -16.967106,3.35897 -9.215637,3.272843 -19.723185,9.818529 V 32.57921 q 11.196567,-3.70348 22.134753,-5.598284 10.938186,-1.980931 21.445734,-1.980931 23.082155,0 35.829013,10.163039 12.83299,10.163038 12.83299,28.335929 0,10.507548 -5.42603,19.637057 -5.42602,9.043382 -22.823769,24.28794 z"
         id="path26276" />
      <path
         d="m 183.12999,52.388523 v 78.462107 h 11.88558 q 20.32608,0 31.00588,-10.07692 10.76593,-10.07691 10.76593,-29.283327 0,-19.120293 -10.6798,-29.111077 -10.6798,-9.990783 -31.09201,-9.990783 z M 149.97092,27.325436 h 34.96774 q 29.28333,0 43.58049,4.220245 14.38328,4.134117 24.63245,14.124901 9.04338,8.698872 13.43588,20.067695 4.3925,11.368822 4.3925,25.752106 0,14.555537 -4.3925,26.010487 -4.3925,11.36882 -13.43588,20.0677 -10.3353,9.99078 -24.80471,14.21102 -14.46941,4.13412 -43.40823,4.13412 h -34.96774 z"
         id="path26278" />
    </g>
  </g>
</svg>
