<?xml version="1.0" encoding="UTF-8" standalone="no"?>
<!-- Created with Inkscape (http://www.inkscape.org/) -->
<svg
   width="500mm"
   height="500mm"
   viewBox="0 0 500 500"
   xmlns="http://www.w3.org/2000/svg"
   xmlns:svg="http://www.w3.org/2000/svg">
   <g
     id="layer1">
    <g
       id="text2979"
       style="font-size:176.389px;font-family:Sans;letter-spacing:0px;word-spacing:0px;stroke-width:0.264583px;">
      <path
         d="m 95.366122,86.581118 q 13.005248,3.358971 19.723188,11.713333 6.80407,8.268239 6.80407,21.101219 0,19.1203 -14.64167,29.11108 -14.641666,9.90466 -42.719213,9.90466 -9.904656,0 -19.89544,-1.63642 Q 34.732401,155.22469 25,152.03798 v -25.57985 q 9.301764,4.65088 18.431273,7.06245 9.215636,2.32544 18.086763,2.32544 13.177499,0 20.153822,-4.56476 7.062451,-4.56475 7.062451,-13.09137 0,-8.785 -7.234705,-13.26363 -7.148578,-4.56475 -21.187352,-4.56475 H 47.048626 V 79.001903 h 13.952646 q 12.488479,0 18.603528,-3.875735 6.115048,-3.961862 6.115048,-11.971715 0,-7.40696 -5.942793,-11.45495 -5.942794,-4.04799 -16.794852,-4.04799 -8.009853,0 -16.19196,1.808676 -8.182107,1.808677 -16.278087,5.339902 v -24.28794 q 9.818529,-2.756078 19.464803,-4.134117 9.646273,-1.378039 18.948038,-1.378039 25.063086,0 37.465443,8.268235 12.48847,8.182107 12.48847,24.718576 0,11.282696 -5.94279,18.517401 -5.94279,7.148578 -17.569998,10.076911 z"
         id="path26478" />
      <path
         d="m 185.28317,52.388523 v 78.462107 h 11.88559 q 20.32608,0 31.00588,-10.07692 10.76593,-10.07691 10.76593,-29.283327 0,-19.120293 -10.6798,-29.111077 -10.67981,-9.990783 -31.09201,-9.990783 z M 152.1241,27.325436 h 34.96775 q 29.28333,0 43.58048,4.220245 14.38329,4.134117 24.63245,14.124901 9.04339,8.698872 13.43589,20.067695 4.3925,11.368822 4.3925,25.752106 0,14.555537 -4.3925,26.010487 -4.3925,11.36882 -13.43589,20.0677 -10.33529,9.99078 -24.8047,14.21102 -14.46941,4.13412 -43.40823,4.13412 H 152.1241 Z"
         id="path26480" />
    </g>
    <path
       style="fill:none;stroke-width:19.092"
       d="M 197.76202,429.07931 279.15145,219.89423"
       id="path21692" />
    <path
       style="color:#000000;"
       d="m 339.26758,169.92578 -93.57031,55.39453 -58.36524,9.48438 -86.06055,83.83398 -54.947261,94.71289 17.298828,10.03711 53.570313,-92.33984 79.57422,-77.51563 55.86719,-9.07812 84.91601,-50.26953 67.74414,54.32422 47.69336,174.63671 19.29297,-5.26953 -49.4043,-180.90625 z"
       id="path21944" />
    <path
       style="color:#000000;"
       d="m 322.77344,237.22656 -22.84571,184.19727 19.84766,2.46094 22.8457,-184.19727 z"
       id="path21946" />
    <path
       style="color:#000000;"
       d="m 295.12305,246.64648 c -29.27142,7.85331 -60.77742,16.21227 -88.67188,41.93164 -27.89438,25.71931 -50.47393,66.32601 -73.08203,106.30665 l 17.41016,9.8457 c 22.60809,-39.98064 45.24442,-79.33349 69.23047,-101.44922 23.98597,-22.11566 51.0235,-29.46505 80.29492,-37.31836 z"
       id="path21954" />
    <path
       style="color:#000000;"
       d="m 279.05664,287.24023 c -14.99277,15.70672 -31.76327,32.7122 -37.04297,56.88868 -5.27965,24.17628 1.45486,50.79449 7.4043,76.49609 l 19.48633,-4.50977 c -5.94944,-25.70159 -11.11497,-50.4856 -7.35157,-67.71875 3.76336,-17.23295 16.97989,-31.64094 31.97266,-47.34765 z"
       id="path21958" />
    <path
       style="color:#000000;"
       d="m 363.08594,261.24414 -12.22852,15.82422 c 7.8535,6.06861 15.28909,11.91945 20.22266,17.41797 4.93357,5.49851 7.05077,9.9597 6.94922,14.42383 -0.10156,4.46433 -3.39144,12.50084 -7.83789,21.76562 -4.44646,9.26478 -9.78273,19.87392 -11.25,32.12695 -2.93453,24.50591 10.52076,46.47733 22.18164,66.94336 l 17.3789,-9.90039 c -11.66087,-20.46603 -21.52778,-39.4265 -19.70312,-54.66406 0.91232,-7.61869 4.97589,-16.5837 9.42383,-25.85156 4.44793,-9.26787 9.54699,-18.72238 9.80273,-29.96485 0.25575,-11.24267 -5.30137,-20.70532 -12.05859,-28.23632 -6.75723,-7.531 -15.02736,-13.81616 -22.88086,-19.88477 z"
       id="path21962" />
    <path
       style="color:#000000;"
       d="m 143.87109,162.87891 -80.896481,48.75976 -50.769531,104.64453 17.994141,8.73047 48.179687,-99.30859 66.515624,-40.08985 70.07031,34.0625 82.69727,-3.28906 -0.79492,-19.98437 -77.67578,3.08984 z"
       id="path21978" />
    <path
       style="color:#000000;"
       d="m 136.86523,210.4082 -19.29492,5.26172 c 1.51454,5.55332 2.67774,10.37429 2.67774,13.79883 -1e-5,3.42454 -0.44186,5.22885 -3.19532,8.0332 -2.75356,2.80447 -9.80757,7.03989 -17.689449,11.40235 -7.881879,4.36245 -16.628402,9.03618 -23.761719,15.75 -14.266558,13.42757 -16.200064,31.00553 -17.882812,45.14062 l 19.859375,2.36524 c 1.682748,-14.13509 3.113008,-24.82889 11.732422,-32.94141 4.30967,-4.05623 11.886343,-8.46857 19.738283,-12.81445 7.85194,-4.34589 15.94178,-8.43993 22.27539,-14.89063 6.33372,-6.4508 8.92381,-14.82585 8.92383,-22.04492 1e-5,-7.21907 -1.86827,-13.50723 -3.38282,-19.06055 z"
       id="path21990" />
  </g>
</svg>
